# xmcd
#
# Track frame offsets:
#	150
#	22068
#	37412
#	50266
#	68036
#	83720
#	108555
#	130846
#	141779
#	164260
#	183602
#	196900
#	210753
#	228701
#	251987
#	274163
#	289969
#	311523
#	334485
#
# Disc length: 4630 seconds
#
# Revision: 1
# Processed by: cddbd v1.5.2PL0 Copyright (c) Steve Scherf et al.
# Submitted via: audiograbber 1.83.01
#
DISCID=28121413
DTITLE=Marcel Buergi - so wie ich bin 1998-2010
DYEAR=2010
DGENRE=Christian Rock
TTITLE0=s gröscht Problem
TTITLE1=Zeig mir dä Weg
TTITLE2=Du du bisch wertvoll
TTITLE3=Gib doch nid uf
TTITLE4=Dä Rägeboge
TTITLE5=Härze
TTITLE6=Chom wieder hei
TTITLE7=Härzchlopfe
TTITLE8=Geborge
TTITLE9=Nanemau e Chance
TTITLE10=Min Frönd
TTITLE11=Mee Liebi
TTITLE12=Gang zo dene Lüüt
TTITLE13=Solang
TTITLE14=Wie es Chind
TTITLE15=Es bitzeli andersch
TTITLE16=Nume na ei Tag
TTITLE17=Stah i
TTITLE18=E Vogel ohni Flügel
EXTD=
EXTT0=
EXTT1=
EXTT2=
EXTT3=
EXTT4=
EXTT5=
EXTT6=
EXTT7=
EXTT8=
EXTT9=
EXTT10=
EXTT11=
EXTT12=
EXTT13=
EXTT14=
EXTT15=
EXTT16=
EXTT17=
EXTT18=
PLAYORDER=
